<?xml version="1.0" encoding="iso-8859-1"?>
<!-- Generator: Adobe Illustrator 18.0.0, SVG Export Plug-In . SVG Version: 6.00 Build 0)  -->
<!DOCTYPE svg PUBLIC "-//W3C//DTD SVG 1.1//EN" "http://www.w3.org/Graphics/SVG/1.1/DTD/svg11.dtd">
<svg version="1.1" id="Capa_1" xmlns="http://www.w3.org/2000/svg" xmlns:xlink="http://www.w3.org/1999/xlink" x="0px" y="0px"
	 viewBox="0 0 48.299 48.299" style="enable-background:new 0 0 48.299 48.299;" xml:space="preserve">
<g>
	<path d="M48.161,9.98c-0.031-0.144-0.096-0.283-0.246-0.401c-1.368-1.083-4.602-5.45-6.726-4.726
		c-2.963,1.011-19.252,22.441-22.863,27.164C17.065,30.215,6.562,15.808,6.035,16.131c-1.805,1.103-3.668,2.046-5.392,3.291
		c-0.193,0.14-0.292,0.321-0.321,0.506c-0.236,0.184-0.387,0.489-0.295,0.862c1.48,6.01,6.512,10.743,10.106,15.477
		c2.087,2.749,4.997,9.669,8.92,6.402c0.067-0.056,0.107-0.12,0.151-0.185c0.77-0.314,1.429-0.925,2.119-1.669
		c2.99-3.22,5.622-6.758,8.396-10.17c2.965-3.648,6.254-7.063,9.511-10.431c2.844-2.941,5.37-6.835,8.722-9.135
		C48.37,10.79,48.371,10.313,48.161,9.98z M9.444,20.585c-0.94-0.831-1.914-1.639-2.931-2.417
		C7.609,18.847,8.576,19.664,9.444,20.585z M4.937,21.275c-0.201-0.19-0.426-0.229-0.631-0.182c-0.129-0.36-0.236-0.722-0.294-1.081
		c-0.038-0.232-0.152-0.403-0.3-0.518c0.06-0.045,0.116-0.09,0.178-0.134c0.011,0.167,0.071,0.334,0.198,0.486
		c2.271,2.687,4.83,5.085,7.139,7.736c0.265,0.305,0.524,0.613,0.784,0.919C9.558,26.177,7.395,23.586,4.937,21.275z M14.139,39.215
		c0.229,0.264,0.457,0.529,0.691,0.788c0.271,0.37,0.545,0.74,0.828,1.105c0.001,0.004,0.002,0.009,0.003,0.012
		C15.106,40.62,14.596,39.914,14.139,39.215z M14.874,33.356c0.673,0.594,1.377,1.16,2.117,1.614
		c-0.018,0.118-0.009,0.233,0.02,0.344c0.009,0.049,0.029,0.098,0.048,0.146C16.352,34.74,15.615,34.047,14.874,33.356z
		 M18.147,41.077c-0.002-0.007-0.001-0.014-0.004-0.019c-0.024-0.055-0.052-0.104-0.076-0.158c0.686-0.008,1.584-0.517,2.57-1.31
		C19.766,40.412,18.905,40.991,18.147,41.077z M41.512,6.773c-0.64,0.279-1.173,0.709-1.65,1.214
		C40.334,7.313,40.834,6.795,41.512,6.773z M25.677,27.511c-0.382,0.401-1.066,1.008-1.891,1.752
		c0.729-0.729,1.485-1.422,2.164-2.114c2.215-2.252,3.93-5.014,5.718-7.654c2.028-1.99,4.129-3.884,6.067-5.976
		c1.275-1.378,2.06-3.587,3.551-4.764c-0.994,1.048-1.779,2.562-2.449,4.017c-1.063,1.12-2.003,2.386-2.989,3.612
		C32.717,20.282,29.116,23.902,25.677,27.511z M38.774,18.191c-1.577,1.911-3.347,3.651-5.03,5.467
		c1.27-1.592,2.531-3.192,3.689-4.878c0.091-0.133,0.201-0.32,0.322-0.549c0.407-0.407,0.814-0.813,1.213-1.227
		c1.156-1.204,2.53-2.527,3.373-4.067c0.673-0.905,1.41-1.803,2.243-2.343C43.377,13.333,40.45,16.162,38.774,18.191z" fill='black' />
</g>
<g>
</g>
<g>
</g>
<g>
</g>
<g>
</g>
<g>
</g>
<g>
</g>
<g>
</g>
<g>
</g>
<g>
</g>
<g>
</g>
<g>
</g>
<g>
</g>
<g>
</g>
<g>
</g>
<g>
</g>
</svg>
